<?xml version="1.0" encoding="UTF-8" standalone="no"?>
<!-- Created with Inkscape (http://www.inkscape.org/) -->

<svg
   width="111.33257mm"
   height="111.33257mm"
   viewBox="0 0 111.33257 111.33257"
   version="1.1"
   id="svg1"
   xml:space="preserve"
   inkscape:version="1.3 (0e150ed6c4, 2023-07-21)"
   sodipodi:docname="conferia-logo-dark.svg"
   inkscape:export-filename="conferia-logo-dark.png"
   inkscape:export-xdpi="96"
   inkscape:export-ydpi="96"
   xmlns:inkscape="http://www.inkscape.org/namespaces/inkscape"
   xmlns:sodipodi="http://sodipodi.sourceforge.net/DTD/sodipodi-0.dtd"
   xmlns="http://www.w3.org/2000/svg"
   xmlns:svg="http://www.w3.org/2000/svg"><sodipodi:namedview
     id="namedview1"
     pagecolor="#ffffff"
     bordercolor="#000000"
     borderopacity="0.25"
     inkscape:showpageshadow="2"
     inkscape:pageopacity="0.0"
     inkscape:pagecheckerboard="0"
     inkscape:deskcolor="#d1d1d1"
     inkscape:document-units="mm"
     showguides="true"
     inkscape:zoom="1.5589927"
     inkscape:cx="209.10938"
     inkscape:cy="206.2229"
     inkscape:window-width="1920"
     inkscape:window-height="1129"
     inkscape:window-x="1912"
     inkscape:window-y="-8"
     inkscape:window-maximized="1"
     inkscape:current-layer="layer1"
     inkscape:export-bgcolor="#ffffff00" /><defs
     id="defs1" /><g
     inkscape:label="Layer 1"
     inkscape:groupmode="layer"
     id="layer1"
     transform="translate(-27.663429,-41.410286)"><rect
       style="fill:#ffffff;fill-opacity:1;stroke:none;stroke-width:0.264999"
       id="rect1"
       width="111.33257"
       height="111.33257"
       x="27.663429"
       y="41.410286"
       ry="10.560538" /><g
       style="fill:#000000;fill-opacity:1;stroke:none;stroke-opacity:1"
       id="g1"
       transform="matrix(5.3788113,0,0,5.3788113,46.222841,40.79454)"><path
         fill-rule="evenodd"
         clip-rule="evenodd"
         d="m 4.2069992,1.0666667 c 0.2477632,0 0.4486189,0.2008557 0.4486189,0.4486189 V 1.9639045 H 9.1418077 V 1.5152856 c 0,-0.2477632 0.200891,-0.4486189 0.4486187,-0.4486189 0.2477276,0 0.4486186,0.2008557 0.4486186,0.4486189 v 0.4486189 h 1.345857 c 0.743272,0 1.345857,0.6025581 1.345857,1.3458568 v 8.0751407 c 0,0.743272 -0.602585,1.345857 -1.345857,1.345857 H 2.4125235 c -0.7432988,0 -1.3458568,-0.602585 -1.3458568,-1.345857 V 3.3097613 c 0,-0.7432987 0.602558,-1.3458568 1.3458568,-1.3458568 H 3.7583803 V 1.5152856 c 0,-0.2477632 0.2008557,-0.4486189 0.4486189,-0.4486189 z m 4.9348085,1.7944757 v 0.4486189 c 0,0.2477633 0.200891,0.448619 0.4486187,0.448619 0.2477276,0 0.4486186,-0.2008557 0.4486186,-0.448619 V 2.8611424 h 1.345857 c 0.247727,0 0.448619,0.2008557 0.448619,0.4486189 V 4.6556181 H 1.9639045 V 3.3097613 c 0,-0.2477632 0.2008557,-0.4486189 0.448619,-0.4486189 h 1.3458568 v 0.4486189 c 0,0.2477633 0.2008557,0.448619 0.4486189,0.448619 0.2477632,0 0.4486189,-0.2008557 0.4486189,-0.448619 V 2.8611424 Z M 1.9639045,5.552856 v 5.832046 c 0,0.247727 0.2008557,0.448619 0.448619,0.448619 h 8.9723785 c 0.247727,0 0.448619,-0.200892 0.448619,-0.448619 V 5.552856 Z m 4.4861894,1.3458568 c 0,-0.2477632 0.2008557,-0.4486189 0.4486189,-0.4486189 0.2477632,0 0.4486189,0.2008557 0.4486189,0.4486189 0,0.2477632 -0.2008557,0.4486189 -0.4486189,0.4486189 -0.2477632,0 -0.4486189,-0.2008557 -0.4486189,-0.4486189 z M 8.6931882,6.4500939 c -0.2477629,0 -0.4486186,0.2008557 -0.4486186,0.4486189 0,0.2477632 0.2008557,0.4486189 0.4486186,0.4486189 0.2477639,0 0.4486195,-0.2008557 0.4486195,-0.4486189 0,-0.2477632 -0.2008556,-0.4486189 -0.4486195,-0.4486189 z m 1.3458568,0.4486189 c 0,-0.2477632 0.200892,-0.4486189 0.44862,-0.4486189 0.247726,0 0.448618,0.2008557 0.448618,0.4486189 0,0.2477632 -0.200892,0.4486189 -0.448618,0.4486189 -0.247728,0 -0.44862,-0.2008557 -0.44862,-0.4486189 z m 0.44862,1.3458568 c -0.247728,0 -0.44862,0.2008557 -0.44862,0.4486186 0,0.2477639 0.200892,0.4486195 0.44862,0.4486195 0.247726,0 0.448618,-0.2008556 0.448618,-0.4486195 0,-0.2477629 -0.200892,-0.4486186 -0.448618,-0.4486186 z M 8.2445696,8.6931882 c 0,-0.2477629 0.2008557,-0.4486186 0.4486186,-0.4486186 0.2477639,0 0.4486195,0.2008557 0.4486195,0.4486186 0,0.2477639 -0.2008556,0.4486195 -0.4486195,0.4486195 -0.2477629,0 -0.4486186,-0.2008556 -0.4486186,-0.4486195 z M 6.8987128,8.2445696 c -0.2477632,0 -0.4486189,0.2008557 -0.4486189,0.4486186 0,0.2477639 0.2008557,0.4486195 0.4486189,0.4486195 0.2477632,0 0.4486189,-0.2008556 0.4486189,-0.4486195 0,-0.2477629 -0.2008557,-0.4486186 -0.4486189,-0.4486186 z M 4.6556181,8.6931882 c 0,-0.2477629 0.2008557,-0.4486186 0.448619,-0.4486186 0.2477632,0 0.4486189,0.2008557 0.4486189,0.4486186 0,0.2477639 -0.2008557,0.4486195 -0.4486189,0.4486195 -0.2477633,0 -0.448619,-0.2008556 -0.448619,-0.4486195 z M 3.3097613,8.2445696 c -0.2477632,0 -0.4486189,0.2008557 -0.4486189,0.4486186 0,0.2477639 0.2008557,0.4486195 0.4486189,0.4486195 0.2477633,0 0.448619,-0.2008556 0.448619,-0.4486195 0,-0.2477629 -0.2008557,-0.4486186 -0.448619,-0.4486186 z M 2.8611424,10.487665 c 0,-0.247728 0.2008557,-0.44862 0.4486189,-0.44862 0.2477633,0 0.448619,0.200892 0.448619,0.44862 0,0.247726 -0.2008557,0.448618 -0.448619,0.448618 -0.2477632,0 -0.4486189,-0.200892 -0.4486189,-0.448618 z"
         fill="#000000"
         stroke-width="0.897266"
         id="path1-3"
         style="fill:#000000;fill-opacity:1;stroke:none;stroke-opacity:1"
         sodipodi:nodetypes="ssccssscsssssssscsscssscssccsscssscccssssccsssssssssssssssssssssssssssssssssssssssssssss" /></g><g
       id="g6"
       transform="translate(4.2270855,-0.04004764)"
       style="fill:#000000;fill-opacity:1"><g
         id="g3"
         transform="matrix(0.69570966,0,0,0.69570966,53.912838,44.465744)"
         style="fill:#000000;fill-opacity:1"><path
           id="path2"
           style="fill:#000000;fill-opacity:1;stroke-width:0.140068"
           d="m 77.140291,99.151148 c -3.361642,0 -6.371693,1.246792 -8.524545,3.557922 -2.152851,2.31114 -3.204776,5.48222 -2.961059,8.93072 0.228311,3.23278 1.522401,6.26807 3.641638,8.54418 2.179464,2.33355 4.96416,3.61942 7.843966,3.61942 2.881208,0 5.664413,-1.28602 7.838281,-3.62097 2.115038,-2.27332 3.407728,-5.30719 3.641638,-8.54418 0.24371,-3.41907 -0.811255,-6.58471 -2.978113,-8.91264 -2.145848,-2.30552 -5.163972,-3.574452 -8.501806,-3.574452 z m 5e-5,28.076322 c -5.062078,0 -9.974375,1.31667 -13.833265,3.70624 -4.347729,2.69351 -7.269719,6.62068 -8.449096,11.35641 -0.319303,1.25357 -0.04786,2.58433 0.736906,3.6127 0.739958,0.94889 1.87818,1.50092 3.081465,1.49448 h 36.929012 c 1.199379,0.006 2.334061,-0.54318 3.073211,-1.48776 0.7862,-1.02704 1.06059,-2.35678 0.74517,-3.61115 -1.17377,-4.79315 -4.099841,-8.74305 -8.457374,-11.42256 -3.881296,-2.38817 -8.664504,-3.64836 -13.826029,-3.64836 z"
           sodipodi:nodetypes="ssccscccssccccccccs" /></g><g
         id="g4"
         transform="matrix(0.69570966,0,0,0.69570966,-3.0407993,44.465744)"
         style="fill:#000000;fill-opacity:1"><path
           id="path3"
           style="fill:#000000;fill-opacity:1;stroke-width:0.140068"
           d="m 77.140291,99.151148 c -3.361642,0 -6.371693,1.246792 -8.524545,3.557922 -2.152851,2.31114 -3.204776,5.48222 -2.961059,8.93072 0.228311,3.23278 1.522401,6.26807 3.641638,8.54418 2.179464,2.33355 4.96416,3.61942 7.843966,3.61942 2.881208,0 5.664413,-1.28602 7.838281,-3.62097 2.115038,-2.27332 3.407728,-5.30719 3.641638,-8.54418 0.24371,-3.41907 -0.811255,-6.58471 -2.978113,-8.91264 -2.145848,-2.30552 -5.163972,-3.574452 -8.501806,-3.574452 z m 5e-5,28.076322 c -5.062078,0 -9.974375,1.31667 -13.833265,3.70624 -4.347729,2.69351 -7.269719,6.62068 -8.449096,11.35641 -0.319303,1.25357 -0.04786,2.58433 0.736906,3.6127 0.739958,0.94889 1.87818,1.50092 3.081465,1.49448 h 36.929012 c 1.199379,0.006 2.334061,-0.54318 3.073211,-1.48776 0.7862,-1.02704 1.06059,-2.35678 0.74517,-3.61115 -1.17377,-4.79315 -4.099841,-8.74305 -8.457374,-11.42256 -3.881296,-2.38817 -8.664504,-3.64836 -13.826029,-3.64836 z"
           sodipodi:nodetypes="ssccscccssccccccccs" /></g></g><path
       id="path1-0"
       style="fill:#000000;fill-opacity:1;stroke:#ffffff;stroke-width:5;stroke-dasharray:none;stroke-opacity:1;paint-order:stroke markers fill"
       d="m 83.330673,126.94741 c -5.062078,0 -9.974375,1.31667 -13.833265,3.70624 -4.347729,2.69351 -7.269719,6.62068 -8.449096,11.35641 -0.319303,1.25357 -0.04786,2.58433 0.736906,3.6127 0.739958,0.94889 1.87818,1.50092 3.081465,1.49448 H 101.7957 c 1.19937,0.006 2.33406,-0.54318 3.07321,-1.48776 0.7862,-1.02704 1.06059,-2.35678 0.74517,-3.61115 -1.17377,-4.79315 -4.09984,-8.74305 -8.457378,-11.42256 -3.881296,-2.38817 -8.664504,-3.64836 -13.826029,-3.64836 z"
       sodipodi:nodetypes="sccccccccs" /><path
       d="m 83.332615,97.058078 c -3.36164,0 -6.37169,1.246789 -8.52454,3.557912 -2.15285,2.31114 -3.20478,5.48222 -2.96106,8.93072 0.22831,3.23278 1.5224,6.26807 3.64164,8.54418 2.17946,2.33355 4.96416,3.61942 7.84396,3.61942 2.88121,0 5.66442,-1.28602 7.83828,-3.62097 2.11504,-2.27332 3.40773,-5.30719 3.64164,-8.54418 0.24371,-3.41907 -0.81125,-6.58471 -2.97811,-8.91264 -2.14585,-2.305513 -5.16397,-3.574442 -8.50181,-3.574442 z"
       style="fill:#000000;fill-opacity:1;stroke:#ffffff;stroke-width:10;stroke-dasharray:none;stroke-opacity:1;paint-order:stroke markers fill"
       id="path1" /></g></svg>
